G04 #@! TF.GenerationSoftware,KiCad,Pcbnew,(5.1.5)-3*
G04 #@! TF.CreationDate,2020-02-26T13:13:57-08:00*
G04 #@! TF.ProjectId,NeutrikEthercon,4e657574-7269-46b4-9574-686572636f6e,rev?*
G04 #@! TF.SameCoordinates,Original*
G04 #@! TF.FileFunction,Legend,Top*
G04 #@! TF.FilePolarity,Positive*
%FSLAX46Y46*%
G04 Gerber Fmt 4.6, Leading zero omitted, Abs format (unit mm)*
G04 Created by KiCad (PCBNEW (5.1.5)-3) date 2020-02-26 13:13:57*
%MOMM*%
%LPD*%
G04 APERTURE LIST*
%ADD10C,0.150000*%
%ADD11C,0.300000*%
%ADD12C,0.120000*%
G04 APERTURE END LIST*
D10*
X127477380Y-124285714D02*
X127001190Y-124619047D01*
X127477380Y-124857142D02*
X126477380Y-124857142D01*
X126477380Y-124476190D01*
X126525000Y-124380952D01*
X126572619Y-124333333D01*
X126667857Y-124285714D01*
X126810714Y-124285714D01*
X126905952Y-124333333D01*
X126953571Y-124380952D01*
X127001190Y-124476190D01*
X127001190Y-124857142D01*
X126477380Y-123952380D02*
X127477380Y-123285714D01*
X126477380Y-123285714D02*
X127477380Y-123952380D01*
X127096428Y-122904761D02*
X127096428Y-122142857D01*
X127477380Y-122523809D02*
X126715476Y-122523809D01*
X129127380Y-124285714D02*
X128651190Y-124619047D01*
X129127380Y-124857142D02*
X128127380Y-124857142D01*
X128127380Y-124476190D01*
X128175000Y-124380952D01*
X128222619Y-124333333D01*
X128317857Y-124285714D01*
X128460714Y-124285714D01*
X128555952Y-124333333D01*
X128603571Y-124380952D01*
X128651190Y-124476190D01*
X128651190Y-124857142D01*
X128127380Y-123952380D02*
X129127380Y-123285714D01*
X128127380Y-123285714D02*
X129127380Y-123952380D01*
X128746428Y-122904761D02*
X128746428Y-122142857D01*
X129777380Y-124880952D02*
X129777380Y-124309523D01*
X130777380Y-124595238D02*
X129777380Y-124595238D01*
X129777380Y-124071428D02*
X130777380Y-123404761D01*
X129777380Y-123404761D02*
X130777380Y-124071428D01*
X130396428Y-123023809D02*
X130396428Y-122261904D01*
X130777380Y-122642857D02*
X130015476Y-122642857D01*
X131427380Y-124880952D02*
X131427380Y-124309523D01*
X132427380Y-124595238D02*
X131427380Y-124595238D01*
X131427380Y-124071428D02*
X132427380Y-123404761D01*
X131427380Y-123404761D02*
X132427380Y-124071428D01*
X132046428Y-123023809D02*
X132046428Y-122261904D01*
D11*
X138928571Y-120107142D02*
X140071428Y-120107142D01*
X136428571Y-120107142D02*
X137571428Y-120107142D01*
X137000000Y-120678571D02*
X137000000Y-119535714D01*
D10*
X127166666Y-127127380D02*
X127166666Y-126127380D01*
X127738095Y-127127380D01*
X127738095Y-126127380D01*
X128214285Y-126603571D02*
X128547619Y-126603571D01*
X128690476Y-127127380D02*
X128214285Y-127127380D01*
X128214285Y-126127380D01*
X128690476Y-126127380D01*
X129261904Y-126555952D02*
X129166666Y-126508333D01*
X129119047Y-126460714D01*
X129071428Y-126365476D01*
X129071428Y-126317857D01*
X129119047Y-126222619D01*
X129166666Y-126175000D01*
X129261904Y-126127380D01*
X129452380Y-126127380D01*
X129547619Y-126175000D01*
X129595238Y-126222619D01*
X129642857Y-126317857D01*
X129642857Y-126365476D01*
X129595238Y-126460714D01*
X129547619Y-126508333D01*
X129452380Y-126555952D01*
X129261904Y-126555952D01*
X129166666Y-126603571D01*
X129119047Y-126651190D01*
X129071428Y-126746428D01*
X129071428Y-126936904D01*
X129119047Y-127032142D01*
X129166666Y-127079761D01*
X129261904Y-127127380D01*
X129452380Y-127127380D01*
X129547619Y-127079761D01*
X129595238Y-127032142D01*
X129642857Y-126936904D01*
X129642857Y-126746428D01*
X129595238Y-126651190D01*
X129547619Y-126603571D01*
X129452380Y-126555952D01*
X130404761Y-126603571D02*
X130071428Y-126603571D01*
X130071428Y-127127380D02*
X130071428Y-126127380D01*
X130547619Y-126127380D01*
X130928571Y-127127380D02*
X130928571Y-126127380D01*
X131166666Y-126127380D01*
X131309523Y-126175000D01*
X131404761Y-126270238D01*
X131452380Y-126365476D01*
X131500000Y-126555952D01*
X131500000Y-126698809D01*
X131452380Y-126889285D01*
X131404761Y-126984523D01*
X131309523Y-127079761D01*
X131166666Y-127127380D01*
X130928571Y-127127380D01*
X131785714Y-126127380D02*
X132119047Y-127127380D01*
X132452380Y-126127380D01*
X133547619Y-127127380D02*
X133547619Y-126127380D01*
X133928571Y-126127380D01*
X134023809Y-126175000D01*
X134071428Y-126222619D01*
X134119047Y-126317857D01*
X134119047Y-126460714D01*
X134071428Y-126555952D01*
X134023809Y-126603571D01*
X133928571Y-126651190D01*
X133547619Y-126651190D01*
X135119047Y-127032142D02*
X135071428Y-127079761D01*
X134928571Y-127127380D01*
X134833333Y-127127380D01*
X134690476Y-127079761D01*
X134595238Y-126984523D01*
X134547619Y-126889285D01*
X134500000Y-126698809D01*
X134500000Y-126555952D01*
X134547619Y-126365476D01*
X134595238Y-126270238D01*
X134690476Y-126175000D01*
X134833333Y-126127380D01*
X134928571Y-126127380D01*
X135071428Y-126175000D01*
X135119047Y-126222619D01*
X135880952Y-126603571D02*
X136023809Y-126651190D01*
X136071428Y-126698809D01*
X136119047Y-126794047D01*
X136119047Y-126936904D01*
X136071428Y-127032142D01*
X136023809Y-127079761D01*
X135928571Y-127127380D01*
X135547619Y-127127380D01*
X135547619Y-126127380D01*
X135880952Y-126127380D01*
X135976190Y-126175000D01*
X136023809Y-126222619D01*
X136071428Y-126317857D01*
X136071428Y-126413095D01*
X136023809Y-126508333D01*
X135976190Y-126555952D01*
X135880952Y-126603571D01*
X135547619Y-126603571D01*
X128500000Y-128777380D02*
X128500000Y-127777380D01*
X128833333Y-128491666D01*
X129166666Y-127777380D01*
X129166666Y-128777380D01*
X129928571Y-127777380D02*
X129928571Y-128491666D01*
X129880952Y-128634523D01*
X129785714Y-128729761D01*
X129642857Y-128777380D01*
X129547619Y-128777380D01*
X130976190Y-128682142D02*
X130928571Y-128729761D01*
X130785714Y-128777380D01*
X130690476Y-128777380D01*
X130547619Y-128729761D01*
X130452380Y-128634523D01*
X130404761Y-128539285D01*
X130357142Y-128348809D01*
X130357142Y-128205952D01*
X130404761Y-128015476D01*
X130452380Y-127920238D01*
X130547619Y-127825000D01*
X130690476Y-127777380D01*
X130785714Y-127777380D01*
X130928571Y-127825000D01*
X130976190Y-127872619D01*
X132119047Y-127872619D02*
X132166666Y-127825000D01*
X132261904Y-127777380D01*
X132500000Y-127777380D01*
X132595238Y-127825000D01*
X132642857Y-127872619D01*
X132690476Y-127967857D01*
X132690476Y-128063095D01*
X132642857Y-128205952D01*
X132071428Y-128777380D01*
X132690476Y-128777380D01*
X133309523Y-127777380D02*
X133404761Y-127777380D01*
X133500000Y-127825000D01*
X133547619Y-127872619D01*
X133595238Y-127967857D01*
X133642857Y-128158333D01*
X133642857Y-128396428D01*
X133595238Y-128586904D01*
X133547619Y-128682142D01*
X133500000Y-128729761D01*
X133404761Y-128777380D01*
X133309523Y-128777380D01*
X133214285Y-128729761D01*
X133166666Y-128682142D01*
X133119047Y-128586904D01*
X133071428Y-128396428D01*
X133071428Y-128158333D01*
X133119047Y-127967857D01*
X133166666Y-127872619D01*
X133214285Y-127825000D01*
X133309523Y-127777380D01*
X134023809Y-127872619D02*
X134071428Y-127825000D01*
X134166666Y-127777380D01*
X134404761Y-127777380D01*
X134500000Y-127825000D01*
X134547619Y-127872619D01*
X134595238Y-127967857D01*
X134595238Y-128063095D01*
X134547619Y-128205952D01*
X133976190Y-128777380D01*
X134595238Y-128777380D01*
X135214285Y-127777380D02*
X135309523Y-127777380D01*
X135404761Y-127825000D01*
X135452380Y-127872619D01*
X135500000Y-127967857D01*
X135547619Y-128158333D01*
X135547619Y-128396428D01*
X135500000Y-128586904D01*
X135452380Y-128682142D01*
X135404761Y-128729761D01*
X135309523Y-128777380D01*
X135214285Y-128777380D01*
X135119047Y-128729761D01*
X135071428Y-128682142D01*
X135023809Y-128586904D01*
X134976190Y-128396428D01*
X134976190Y-128158333D01*
X135023809Y-127967857D01*
X135071428Y-127872619D01*
X135119047Y-127825000D01*
X135214285Y-127777380D01*
D12*
X135360555Y-115000000D02*
G75*
G03X135360555Y-115000000I-360555J0D01*
G01*
X140500000Y-123250000D02*
X140500000Y-120450000D01*
X140500000Y-120450000D02*
X142500000Y-120450000D01*
X142500000Y-120450000D02*
X142500000Y-123250000D01*
X142500000Y-123250000D02*
X140500000Y-123250000D01*
X135670000Y-118830000D02*
X135670000Y-117500000D01*
X137000000Y-118830000D02*
X135670000Y-118830000D01*
X138270000Y-118830000D02*
X138270000Y-116170000D01*
X138270000Y-116170000D02*
X140870000Y-116170000D01*
X138270000Y-118830000D02*
X140870000Y-118830000D01*
X140870000Y-118830000D02*
X140870000Y-116170000D01*
X124670000Y-121830000D02*
X124670000Y-120500000D01*
X126000000Y-121830000D02*
X124670000Y-121830000D01*
X127270000Y-121830000D02*
X127270000Y-119170000D01*
X127270000Y-119170000D02*
X134950000Y-119170000D01*
X127270000Y-121830000D02*
X134950000Y-121830000D01*
X134950000Y-121830000D02*
X134950000Y-119170000D01*
D10*
X139195238Y-128604761D02*
X139338095Y-128652380D01*
X139576190Y-128652380D01*
X139671428Y-128604761D01*
X139719047Y-128557142D01*
X139766666Y-128461904D01*
X139766666Y-128366666D01*
X139719047Y-128271428D01*
X139671428Y-128223809D01*
X139576190Y-128176190D01*
X139385714Y-128128571D01*
X139290476Y-128080952D01*
X139242857Y-128033333D01*
X139195238Y-127938095D01*
X139195238Y-127842857D01*
X139242857Y-127747619D01*
X139290476Y-127700000D01*
X139385714Y-127652380D01*
X139623809Y-127652380D01*
X139766666Y-127700000D01*
X140195238Y-128652380D02*
X140195238Y-127652380D01*
X140195238Y-128128571D02*
X140766666Y-128128571D01*
X140766666Y-128652380D02*
X140766666Y-127652380D01*
X141242857Y-128652380D02*
X141242857Y-127652380D01*
X141719047Y-128128571D02*
X142052380Y-128128571D01*
X142195238Y-128652380D02*
X141719047Y-128652380D01*
X141719047Y-127652380D01*
X142195238Y-127652380D01*
X143100000Y-128652380D02*
X142623809Y-128652380D01*
X142623809Y-127652380D01*
X143433333Y-128652380D02*
X143433333Y-127652380D01*
X143671428Y-127652380D01*
X143814285Y-127700000D01*
X143909523Y-127795238D01*
X143957142Y-127890476D01*
X144004761Y-128080952D01*
X144004761Y-128223809D01*
X143957142Y-128414285D01*
X143909523Y-128509523D01*
X143814285Y-128604761D01*
X143671428Y-128652380D01*
X143433333Y-128652380D01*
X143500000Y-123214285D02*
X143452380Y-123309523D01*
X143452380Y-123452380D01*
X143500000Y-123595238D01*
X143595238Y-123690476D01*
X143690476Y-123738095D01*
X143880952Y-123785714D01*
X144023809Y-123785714D01*
X144214285Y-123738095D01*
X144309523Y-123690476D01*
X144404761Y-123595238D01*
X144452380Y-123452380D01*
X144452380Y-123357142D01*
X144404761Y-123214285D01*
X144357142Y-123166666D01*
X144023809Y-123166666D01*
X144023809Y-123357142D01*
X144452380Y-122738095D02*
X143452380Y-122738095D01*
X144452380Y-122166666D01*
X143452380Y-122166666D01*
X144452380Y-121690476D02*
X143452380Y-121690476D01*
X143452380Y-121452380D01*
X143500000Y-121309523D01*
X143595238Y-121214285D01*
X143690476Y-121166666D01*
X143880952Y-121119047D01*
X144023809Y-121119047D01*
X144214285Y-121166666D01*
X144309523Y-121214285D01*
X144404761Y-121309523D01*
X144452380Y-121452380D01*
X144452380Y-121690476D01*
X143452380Y-120404761D02*
X144166666Y-120404761D01*
X144309523Y-120452380D01*
X144404761Y-120547619D01*
X144452380Y-120690476D01*
X144452380Y-120785714D01*
X144452380Y-119928571D02*
X143452380Y-119928571D01*
X144166666Y-119595238D01*
X143452380Y-119261904D01*
X144452380Y-119261904D01*
X144452380Y-118785714D02*
X143452380Y-118785714D01*
X143452380Y-118404761D01*
X143500000Y-118309523D01*
X143547619Y-118261904D01*
X143642857Y-118214285D01*
X143785714Y-118214285D01*
X143880952Y-118261904D01*
X143928571Y-118309523D01*
X143976190Y-118404761D01*
X143976190Y-118785714D01*
X136380952Y-115952380D02*
X136571428Y-115952380D01*
X136666666Y-115904761D01*
X136714285Y-115857142D01*
X136809523Y-115714285D01*
X136857142Y-115523809D01*
X136857142Y-115142857D01*
X136809523Y-115047619D01*
X136761904Y-115000000D01*
X136666666Y-114952380D01*
X136476190Y-114952380D01*
X136380952Y-115000000D01*
X136333333Y-115047619D01*
X136285714Y-115142857D01*
X136285714Y-115380952D01*
X136333333Y-115476190D01*
X136380952Y-115523809D01*
X136476190Y-115571428D01*
X136666666Y-115571428D01*
X136761904Y-115523809D01*
X136809523Y-115476190D01*
X136857142Y-115380952D01*
X137142857Y-114952380D02*
X137476190Y-115952380D01*
X137809523Y-114952380D01*
X138142857Y-115952380D02*
X138142857Y-114952380D01*
X138380952Y-114952380D01*
X138523809Y-115000000D01*
X138619047Y-115095238D01*
X138666666Y-115190476D01*
X138714285Y-115380952D01*
X138714285Y-115523809D01*
X138666666Y-115714285D01*
X138619047Y-115809523D01*
X138523809Y-115904761D01*
X138380952Y-115952380D01*
X138142857Y-115952380D01*
X139714285Y-115857142D02*
X139666666Y-115904761D01*
X139523809Y-115952380D01*
X139428571Y-115952380D01*
X139285714Y-115904761D01*
X139190476Y-115809523D01*
X139142857Y-115714285D01*
X139095238Y-115523809D01*
X139095238Y-115380952D01*
X139142857Y-115190476D01*
X139190476Y-115095238D01*
X139285714Y-115000000D01*
X139428571Y-114952380D01*
X139523809Y-114952380D01*
X139666666Y-115000000D01*
X139714285Y-115047619D01*
X127730476Y-118952380D02*
X127730476Y-117952380D01*
X128063809Y-118666666D01*
X128397142Y-117952380D01*
X128397142Y-118952380D01*
X128873333Y-118952380D02*
X128873333Y-117952380D01*
X129349523Y-118952380D02*
X129349523Y-117952380D01*
X129587619Y-117952380D01*
X129730476Y-118000000D01*
X129825714Y-118095238D01*
X129873333Y-118190476D01*
X129920952Y-118380952D01*
X129920952Y-118523809D01*
X129873333Y-118714285D01*
X129825714Y-118809523D01*
X129730476Y-118904761D01*
X129587619Y-118952380D01*
X129349523Y-118952380D01*
X130349523Y-118952380D02*
X130349523Y-117952380D01*
X137894285Y-108047619D02*
X137941904Y-108000000D01*
X138037142Y-107952380D01*
X138275238Y-107952380D01*
X138370476Y-108000000D01*
X138418095Y-108047619D01*
X138465714Y-108142857D01*
X138465714Y-108238095D01*
X138418095Y-108380952D01*
X137846666Y-108952380D01*
X138465714Y-108952380D01*
X135820476Y-108285714D02*
X135820476Y-108952380D01*
X135582380Y-107904761D02*
X135344285Y-108619047D01*
X135963333Y-108619047D01*
X133290476Y-107952380D02*
X133100000Y-107952380D01*
X133004761Y-108000000D01*
X132957142Y-108047619D01*
X132861904Y-108190476D01*
X132814285Y-108380952D01*
X132814285Y-108761904D01*
X132861904Y-108857142D01*
X132909523Y-108904761D01*
X133004761Y-108952380D01*
X133195238Y-108952380D01*
X133290476Y-108904761D01*
X133338095Y-108857142D01*
X133385714Y-108761904D01*
X133385714Y-108523809D01*
X133338095Y-108428571D01*
X133290476Y-108380952D01*
X133195238Y-108333333D01*
X133004761Y-108333333D01*
X132909523Y-108380952D01*
X132861904Y-108428571D01*
X132814285Y-108523809D01*
X131486666Y-113752380D02*
X132153333Y-113752380D01*
X131724761Y-114752380D01*
X134588095Y-113752380D02*
X134111904Y-113752380D01*
X134064285Y-114228571D01*
X134111904Y-114180952D01*
X134207142Y-114133333D01*
X134445238Y-114133333D01*
X134540476Y-114180952D01*
X134588095Y-114228571D01*
X134635714Y-114323809D01*
X134635714Y-114561904D01*
X134588095Y-114657142D01*
X134540476Y-114704761D01*
X134445238Y-114752380D01*
X134207142Y-114752380D01*
X134111904Y-114704761D01*
X134064285Y-114657142D01*
X136566666Y-113752380D02*
X137185714Y-113752380D01*
X136852380Y-114133333D01*
X136995238Y-114133333D01*
X137090476Y-114180952D01*
X137138095Y-114228571D01*
X137185714Y-114323809D01*
X137185714Y-114561904D01*
X137138095Y-114657142D01*
X137090476Y-114704761D01*
X136995238Y-114752380D01*
X136709523Y-114752380D01*
X136614285Y-114704761D01*
X136566666Y-114657142D01*
X139725714Y-114752380D02*
X139154285Y-114752380D01*
X139440000Y-114752380D02*
X139440000Y-113752380D01*
X139344761Y-113895238D01*
X139249523Y-113990476D01*
X139154285Y-114038095D01*
X130464761Y-108380952D02*
X130369523Y-108333333D01*
X130321904Y-108285714D01*
X130274285Y-108190476D01*
X130274285Y-108142857D01*
X130321904Y-108047619D01*
X130369523Y-108000000D01*
X130464761Y-107952380D01*
X130655238Y-107952380D01*
X130750476Y-108000000D01*
X130798095Y-108047619D01*
X130845714Y-108142857D01*
X130845714Y-108190476D01*
X130798095Y-108285714D01*
X130750476Y-108333333D01*
X130655238Y-108380952D01*
X130464761Y-108380952D01*
X130369523Y-108428571D01*
X130321904Y-108476190D01*
X130274285Y-108571428D01*
X130274285Y-108761904D01*
X130321904Y-108857142D01*
X130369523Y-108904761D01*
X130464761Y-108952380D01*
X130655238Y-108952380D01*
X130750476Y-108904761D01*
X130798095Y-108857142D01*
X130845714Y-108761904D01*
X130845714Y-108571428D01*
X130798095Y-108476190D01*
X130750476Y-108428571D01*
X130655238Y-108380952D01*
M02*
