G04 #@! TF.GenerationSoftware,KiCad,Pcbnew,(5.1.5)-3*
G04 #@! TF.CreationDate,2020-02-26T13:13:57-08:00*
G04 #@! TF.ProjectId,NeutrikEthercon,4e657574-7269-46b4-9574-686572636f6e,rev?*
G04 #@! TF.SameCoordinates,Original*
G04 #@! TF.FileFunction,Soldermask,Bot*
G04 #@! TF.FilePolarity,Negative*
%FSLAX46Y46*%
G04 Gerber Fmt 4.6, Leading zero omitted, Abs format (unit mm)*
G04 Created by KiCad (PCBNEW (5.1.5)-3) date 2020-02-26 13:13:57*
%MOMM*%
%LPD*%
G04 APERTURE LIST*
%ADD10C,0.100000*%
G04 APERTURE END LIST*
D10*
G36*
X141902585Y-124028802D02*
G01*
X142052410Y-124058604D01*
X142334674Y-124175521D01*
X142588705Y-124345259D01*
X142804741Y-124561295D01*
X142974479Y-124815326D01*
X143091396Y-125097590D01*
X143151000Y-125397240D01*
X143151000Y-125702760D01*
X143091396Y-126002410D01*
X142974479Y-126284674D01*
X142804741Y-126538705D01*
X142588705Y-126754741D01*
X142334674Y-126924479D01*
X142052410Y-127041396D01*
X141902585Y-127071198D01*
X141752761Y-127101000D01*
X141447239Y-127101000D01*
X141297415Y-127071198D01*
X141147590Y-127041396D01*
X140865326Y-126924479D01*
X140611295Y-126754741D01*
X140395259Y-126538705D01*
X140225521Y-126284674D01*
X140108604Y-126002410D01*
X140049000Y-125702760D01*
X140049000Y-125397240D01*
X140108604Y-125097590D01*
X140225521Y-124815326D01*
X140395259Y-124561295D01*
X140611295Y-124345259D01*
X140865326Y-124175521D01*
X141147590Y-124058604D01*
X141297415Y-124028802D01*
X141447239Y-123999000D01*
X141752761Y-123999000D01*
X141902585Y-124028802D01*
G37*
G36*
X133733512Y-119603927D02*
G01*
X133882812Y-119633624D01*
X134046784Y-119701544D01*
X134194354Y-119800147D01*
X134319853Y-119925646D01*
X134418456Y-120073216D01*
X134486376Y-120237188D01*
X134521000Y-120411259D01*
X134521000Y-120588741D01*
X134486376Y-120762812D01*
X134418456Y-120926784D01*
X134319853Y-121074354D01*
X134194354Y-121199853D01*
X134046784Y-121298456D01*
X133882812Y-121366376D01*
X133733512Y-121396073D01*
X133708742Y-121401000D01*
X133531258Y-121401000D01*
X133506488Y-121396073D01*
X133357188Y-121366376D01*
X133193216Y-121298456D01*
X133045646Y-121199853D01*
X132920147Y-121074354D01*
X132821544Y-120926784D01*
X132753624Y-120762812D01*
X132719000Y-120588741D01*
X132719000Y-120411259D01*
X132753624Y-120237188D01*
X132821544Y-120073216D01*
X132920147Y-119925646D01*
X133045646Y-119800147D01*
X133193216Y-119701544D01*
X133357188Y-119633624D01*
X133506488Y-119603927D01*
X133531258Y-119599000D01*
X133708742Y-119599000D01*
X133733512Y-119603927D01*
G37*
G36*
X126901000Y-121401000D02*
G01*
X125099000Y-121401000D01*
X125099000Y-119599000D01*
X126901000Y-119599000D01*
X126901000Y-121401000D01*
G37*
G36*
X128653512Y-119603927D02*
G01*
X128802812Y-119633624D01*
X128966784Y-119701544D01*
X129114354Y-119800147D01*
X129239853Y-119925646D01*
X129338456Y-120073216D01*
X129406376Y-120237188D01*
X129441000Y-120411259D01*
X129441000Y-120588741D01*
X129406376Y-120762812D01*
X129338456Y-120926784D01*
X129239853Y-121074354D01*
X129114354Y-121199853D01*
X128966784Y-121298456D01*
X128802812Y-121366376D01*
X128653512Y-121396073D01*
X128628742Y-121401000D01*
X128451258Y-121401000D01*
X128426488Y-121396073D01*
X128277188Y-121366376D01*
X128113216Y-121298456D01*
X127965646Y-121199853D01*
X127840147Y-121074354D01*
X127741544Y-120926784D01*
X127673624Y-120762812D01*
X127639000Y-120588741D01*
X127639000Y-120411259D01*
X127673624Y-120237188D01*
X127741544Y-120073216D01*
X127840147Y-119925646D01*
X127965646Y-119800147D01*
X128113216Y-119701544D01*
X128277188Y-119633624D01*
X128426488Y-119603927D01*
X128451258Y-119599000D01*
X128628742Y-119599000D01*
X128653512Y-119603927D01*
G37*
G36*
X131193512Y-119603927D02*
G01*
X131342812Y-119633624D01*
X131506784Y-119701544D01*
X131654354Y-119800147D01*
X131779853Y-119925646D01*
X131878456Y-120073216D01*
X131946376Y-120237188D01*
X131981000Y-120411259D01*
X131981000Y-120588741D01*
X131946376Y-120762812D01*
X131878456Y-120926784D01*
X131779853Y-121074354D01*
X131654354Y-121199853D01*
X131506784Y-121298456D01*
X131342812Y-121366376D01*
X131193512Y-121396073D01*
X131168742Y-121401000D01*
X130991258Y-121401000D01*
X130966488Y-121396073D01*
X130817188Y-121366376D01*
X130653216Y-121298456D01*
X130505646Y-121199853D01*
X130380147Y-121074354D01*
X130281544Y-120926784D01*
X130213624Y-120762812D01*
X130179000Y-120588741D01*
X130179000Y-120411259D01*
X130213624Y-120237188D01*
X130281544Y-120073216D01*
X130380147Y-119925646D01*
X130505646Y-119800147D01*
X130653216Y-119701544D01*
X130817188Y-119633624D01*
X130966488Y-119603927D01*
X130991258Y-119599000D01*
X131168742Y-119599000D01*
X131193512Y-119603927D01*
G37*
G36*
X139653512Y-116603927D02*
G01*
X139802812Y-116633624D01*
X139966784Y-116701544D01*
X140114354Y-116800147D01*
X140239853Y-116925646D01*
X140338456Y-117073216D01*
X140406376Y-117237188D01*
X140441000Y-117411259D01*
X140441000Y-117588741D01*
X140406376Y-117762812D01*
X140338456Y-117926784D01*
X140239853Y-118074354D01*
X140114354Y-118199853D01*
X139966784Y-118298456D01*
X139802812Y-118366376D01*
X139653512Y-118396073D01*
X139628742Y-118401000D01*
X139451258Y-118401000D01*
X139426488Y-118396073D01*
X139277188Y-118366376D01*
X139113216Y-118298456D01*
X138965646Y-118199853D01*
X138840147Y-118074354D01*
X138741544Y-117926784D01*
X138673624Y-117762812D01*
X138639000Y-117588741D01*
X138639000Y-117411259D01*
X138673624Y-117237188D01*
X138741544Y-117073216D01*
X138840147Y-116925646D01*
X138965646Y-116800147D01*
X139113216Y-116701544D01*
X139277188Y-116633624D01*
X139426488Y-116603927D01*
X139451258Y-116599000D01*
X139628742Y-116599000D01*
X139653512Y-116603927D01*
G37*
G36*
X137901000Y-118401000D02*
G01*
X136099000Y-118401000D01*
X136099000Y-116599000D01*
X137901000Y-116599000D01*
X137901000Y-118401000D01*
G37*
G36*
X137170104Y-111569585D02*
G01*
X137338626Y-111639389D01*
X137490291Y-111740728D01*
X137619272Y-111869709D01*
X137720611Y-112021374D01*
X137790415Y-112189896D01*
X137826000Y-112368797D01*
X137826000Y-112551203D01*
X137790415Y-112730104D01*
X137720611Y-112898626D01*
X137619272Y-113050291D01*
X137490291Y-113179272D01*
X137338626Y-113280611D01*
X137170104Y-113350415D01*
X136991203Y-113386000D01*
X136808797Y-113386000D01*
X136629896Y-113350415D01*
X136461374Y-113280611D01*
X136309709Y-113179272D01*
X136180728Y-113050291D01*
X136079389Y-112898626D01*
X136009585Y-112730104D01*
X135974000Y-112551203D01*
X135974000Y-112368797D01*
X136009585Y-112189896D01*
X136079389Y-112021374D01*
X136180728Y-111869709D01*
X136309709Y-111740728D01*
X136461374Y-111639389D01*
X136629896Y-111569585D01*
X136808797Y-111534000D01*
X136991203Y-111534000D01*
X137170104Y-111569585D01*
G37*
G36*
X139710104Y-111569585D02*
G01*
X139878626Y-111639389D01*
X140030291Y-111740728D01*
X140159272Y-111869709D01*
X140260611Y-112021374D01*
X140330415Y-112189896D01*
X140366000Y-112368797D01*
X140366000Y-112551203D01*
X140330415Y-112730104D01*
X140260611Y-112898626D01*
X140159272Y-113050291D01*
X140030291Y-113179272D01*
X139878626Y-113280611D01*
X139710104Y-113350415D01*
X139531203Y-113386000D01*
X139348797Y-113386000D01*
X139169896Y-113350415D01*
X139001374Y-113280611D01*
X138849709Y-113179272D01*
X138720728Y-113050291D01*
X138619389Y-112898626D01*
X138549585Y-112730104D01*
X138514000Y-112551203D01*
X138514000Y-112368797D01*
X138549585Y-112189896D01*
X138619389Y-112021374D01*
X138720728Y-111869709D01*
X138849709Y-111740728D01*
X139001374Y-111639389D01*
X139169896Y-111569585D01*
X139348797Y-111534000D01*
X139531203Y-111534000D01*
X139710104Y-111569585D01*
G37*
G36*
X134620104Y-111549585D02*
G01*
X134788626Y-111619389D01*
X134940291Y-111720728D01*
X135069272Y-111849709D01*
X135170611Y-112001374D01*
X135240415Y-112169896D01*
X135276000Y-112348797D01*
X135276000Y-112531203D01*
X135240415Y-112710104D01*
X135170611Y-112878626D01*
X135069272Y-113030291D01*
X134940291Y-113159272D01*
X134788626Y-113260611D01*
X134620104Y-113330415D01*
X134441203Y-113366000D01*
X134258797Y-113366000D01*
X134079896Y-113330415D01*
X133911374Y-113260611D01*
X133759709Y-113159272D01*
X133630728Y-113030291D01*
X133529389Y-112878626D01*
X133459585Y-112710104D01*
X133424000Y-112531203D01*
X133424000Y-112348797D01*
X133459585Y-112169896D01*
X133529389Y-112001374D01*
X133630728Y-111849709D01*
X133759709Y-111720728D01*
X133911374Y-111619389D01*
X134079896Y-111549585D01*
X134258797Y-111514000D01*
X134441203Y-111514000D01*
X134620104Y-111549585D01*
G37*
G36*
X132090104Y-111539585D02*
G01*
X132258626Y-111609389D01*
X132410291Y-111710728D01*
X132539272Y-111839709D01*
X132640611Y-111991374D01*
X132710415Y-112159896D01*
X132746000Y-112338797D01*
X132746000Y-112521203D01*
X132710415Y-112700104D01*
X132640611Y-112868626D01*
X132539272Y-113020291D01*
X132410291Y-113149272D01*
X132258626Y-113250611D01*
X132090104Y-113320415D01*
X131911203Y-113356000D01*
X131728797Y-113356000D01*
X131549896Y-113320415D01*
X131381374Y-113250611D01*
X131229709Y-113149272D01*
X131100728Y-113020291D01*
X130999389Y-112868626D01*
X130929585Y-112700104D01*
X130894000Y-112521203D01*
X130894000Y-112338797D01*
X130929585Y-112159896D01*
X130999389Y-111991374D01*
X131100728Y-111839709D01*
X131229709Y-111710728D01*
X131381374Y-111609389D01*
X131549896Y-111539585D01*
X131728797Y-111504000D01*
X131911203Y-111504000D01*
X132090104Y-111539585D01*
G37*
G36*
X130830104Y-109459585D02*
G01*
X130998626Y-109529389D01*
X131150291Y-109630728D01*
X131279272Y-109759709D01*
X131380611Y-109911374D01*
X131450415Y-110079896D01*
X131486000Y-110258797D01*
X131486000Y-110441203D01*
X131450415Y-110620104D01*
X131380611Y-110788626D01*
X131279272Y-110940291D01*
X131150291Y-111069272D01*
X130998626Y-111170611D01*
X130830104Y-111240415D01*
X130651203Y-111276000D01*
X130468797Y-111276000D01*
X130289896Y-111240415D01*
X130121374Y-111170611D01*
X129969709Y-111069272D01*
X129840728Y-110940291D01*
X129739389Y-110788626D01*
X129669585Y-110620104D01*
X129634000Y-110441203D01*
X129634000Y-110258797D01*
X129669585Y-110079896D01*
X129739389Y-109911374D01*
X129840728Y-109759709D01*
X129969709Y-109630728D01*
X130121374Y-109529389D01*
X130289896Y-109459585D01*
X130468797Y-109424000D01*
X130651203Y-109424000D01*
X130830104Y-109459585D01*
G37*
G36*
X133370104Y-109429585D02*
G01*
X133538626Y-109499389D01*
X133690291Y-109600728D01*
X133819272Y-109729709D01*
X133920611Y-109881374D01*
X133990415Y-110049896D01*
X134026000Y-110228797D01*
X134026000Y-110411203D01*
X133990415Y-110590104D01*
X133920611Y-110758626D01*
X133819272Y-110910291D01*
X133690291Y-111039272D01*
X133538626Y-111140611D01*
X133370104Y-111210415D01*
X133191203Y-111246000D01*
X133008797Y-111246000D01*
X132829896Y-111210415D01*
X132661374Y-111140611D01*
X132509709Y-111039272D01*
X132380728Y-110910291D01*
X132279389Y-110758626D01*
X132209585Y-110590104D01*
X132174000Y-110411203D01*
X132174000Y-110228797D01*
X132209585Y-110049896D01*
X132279389Y-109881374D01*
X132380728Y-109729709D01*
X132509709Y-109600728D01*
X132661374Y-109499389D01*
X132829896Y-109429585D01*
X133008797Y-109394000D01*
X133191203Y-109394000D01*
X133370104Y-109429585D01*
G37*
G36*
X135900104Y-109429585D02*
G01*
X136068626Y-109499389D01*
X136220291Y-109600728D01*
X136349272Y-109729709D01*
X136450611Y-109881374D01*
X136520415Y-110049896D01*
X136556000Y-110228797D01*
X136556000Y-110411203D01*
X136520415Y-110590104D01*
X136450611Y-110758626D01*
X136349272Y-110910291D01*
X136220291Y-111039272D01*
X136068626Y-111140611D01*
X135900104Y-111210415D01*
X135721203Y-111246000D01*
X135538797Y-111246000D01*
X135359896Y-111210415D01*
X135191374Y-111140611D01*
X135039709Y-111039272D01*
X134910728Y-110910291D01*
X134809389Y-110758626D01*
X134739585Y-110590104D01*
X134704000Y-110411203D01*
X134704000Y-110228797D01*
X134739585Y-110049896D01*
X134809389Y-109881374D01*
X134910728Y-109729709D01*
X135039709Y-109600728D01*
X135191374Y-109499389D01*
X135359896Y-109429585D01*
X135538797Y-109394000D01*
X135721203Y-109394000D01*
X135900104Y-109429585D01*
G37*
G36*
X138450104Y-109429585D02*
G01*
X138618626Y-109499389D01*
X138770291Y-109600728D01*
X138899272Y-109729709D01*
X139000611Y-109881374D01*
X139070415Y-110049896D01*
X139106000Y-110228797D01*
X139106000Y-110411203D01*
X139070415Y-110590104D01*
X139000611Y-110758626D01*
X138899272Y-110910291D01*
X138770291Y-111039272D01*
X138618626Y-111140611D01*
X138450104Y-111210415D01*
X138271203Y-111246000D01*
X138088797Y-111246000D01*
X137909896Y-111210415D01*
X137741374Y-111140611D01*
X137589709Y-111039272D01*
X137460728Y-110910291D01*
X137359389Y-110758626D01*
X137289585Y-110590104D01*
X137254000Y-110411203D01*
X137254000Y-110228797D01*
X137289585Y-110049896D01*
X137359389Y-109881374D01*
X137460728Y-109729709D01*
X137589709Y-109600728D01*
X137741374Y-109499389D01*
X137909896Y-109429585D01*
X138088797Y-109394000D01*
X138271203Y-109394000D01*
X138450104Y-109429585D01*
G37*
M02*
